<svg width="150" height="121" viewBox="0 0 150 121" fill="none" xmlns="http://www.w3.org/2000/svg">
<rect x="25" width="100" height="100" rx="13" fill="black"/>
<path d="M49.2927 47.3777L59.315 41.0391C59.6048 40.8558 59.7805 40.5368 59.7805 40.1939V37.3157C59.7805 36.5278 58.9118 36.0494 58.246 36.4705L42.3363 46.5325C41.7157 46.925 41.7157 47.8303 42.3363 48.2228L59.315 58.9609C59.6048 59.1442 59.7805 59.4632 59.7805 59.8061V62.6843C59.7805 63.4722 58.9118 63.9506 58.246 63.5295L41 52.6223M98.2067 47.3777L88.1844 41.0391C87.8946 40.8558 87.719 40.5368 87.719 40.1939V37.3157C87.719 36.5278 88.5876 36.0494 89.2535 36.4705L105.163 46.5325C105.784 46.925 105.784 47.8303 105.163 48.2228L88.1844 58.9609C87.8946 59.1442 87.719 59.4632 87.719 59.8061V62.6844C87.719 63.4722 88.5876 63.9506 89.2535 63.5295L106.499 52.6224" stroke="white"/>
<path d="M65.0757 74.7454L85.4107 27.9716C85.6309 27.4651 85.3988 26.8761 84.8923 26.6559L83.1543 25.9003C82.6464 25.6795 82.0558 25.9135 81.837 26.4222L61.7069 73.2225" stroke="white"/>
<path d="M13.863 106.604C15.4652 104.94 17.6757 104 19.9857 104H127.388C129.448 104 131.438 104.748 132.988 106.105C138.892 111.274 135.236 121 127.388 121H19.9857C12.49 121 8.66364 112.003 13.863 106.604Z" fill="#14213D"/>
</svg>
